<svg xmlns="http://www.w3.org/2000/svg"  viewBox="0 0 48 48" width="96px" height="96px"><path fill="#d6e5e5" d="M44.485,37.985C44,30.5,44.5,32.5,44.5,27c0-0.906-1.036-4.121-0.936-5.021	c0.247-2.218,0.597-4.595,0.45-6.822c-0.2-3.044-0.193-7.594-1.53-9.672c-1.42-2.207-4.441-1.873-6.613-1.981	c-2.172-0.108-6.917,1.292-13.83,0.651c-5.97-0.553-3.93,0.123-9.564-0.105C10.422,3.966,7.59,3.697,5.985,4.985	c-1.545,1.24-2.222,1.78-2.222,6.28c0,4.447-0.775,7.014-0.797,11.461c-0.009,1.699,0.009,3.778,0,5.477	c-0.007,1.371,0.35,4.379,0.372,5.75c0.02,1.275,0.542,5.227,0.648,6.533s1.108,2.747,2.286,3.32	c0.502,0.245,1.067,0.315,1.611,0.444c1.02,0.242,7.57-0.211,8.104-0.264c5-0.5,4.408-0.285,9.408-0.285	c1.388,0,6.205,0.257,7.592,0.285c3.512,0.072,5.396,0.184,6.5,0C42.485,43.485,44.485,40.985,44.485,37.985"/><path fill="#010101" d="M9.173,44.819c-0.648,0-1.156-0.024-1.407-0.083c-0.134-0.032-0.269-0.06-0.403-0.088	c-0.433-0.09-0.88-0.184-1.311-0.394c-1.344-0.654-2.446-2.257-2.564-3.729c-0.039-0.476-0.134-1.306-0.238-2.229	c-0.188-1.643-0.398-3.505-0.412-4.336c-0.01-0.623-0.091-1.594-0.177-2.623c-0.098-1.172-0.199-2.384-0.195-3.137	c0.005-0.866,0.002-1.83,0-2.792c-0.002-0.926-0.004-1.851,0-2.685c0.012-2.224,0.211-4.001,0.403-5.72	c0.194-1.729,0.395-3.516,0.395-5.738c0-4.555,0.694-5.293,2.406-6.667c1.61-1.293,4.188-1.17,6.257-1.074l0.572,0.026	c2.492,0.102,3.454,0.024,4.303-0.045c1.089-0.087,1.951-0.158,5.286,0.151c4.543,0.421,8.093-0.043,10.686-0.383	c1.314-0.172,2.357-0.306,3.124-0.27c0.323,0.016,0.665,0.022,1.019,0.028c2.067,0.037,4.641,0.083,5.991,2.182	c1.191,1.854,1.366,5.299,1.521,8.338c0.027,0.552,0.055,1.082,0.087,1.572c0.128,1.94-0.108,3.958-0.337,5.909l-0.115,1	c-0.046,0.406,0.251,1.636,0.488,2.625C44.791,25.663,45,26.53,45,27c0,2.133-0.073,3.136-0.139,4.021	c-0.101,1.37-0.174,2.36,0.123,6.932l0.001,0.032c0,3.292-2.228,5.961-5.418,6.493c-0.896,0.151-2.227,0.116-4.432,0.059	c-0.643-0.017-1.359-0.035-2.161-0.052c-0.588-0.012-1.792-0.065-3.09-0.122c-1.735-0.076-3.702-0.163-4.492-0.163	c-1.393,0-2.353-0.017-3.12-0.03c-1.985-0.035-2.654-0.047-6.237,0.312C15.983,44.488,11.602,44.819,9.173,44.819z M10.119,4.469	c-1.443,0-2.895,0.163-3.821,0.906c-1.482,1.189-2.035,1.633-2.035,5.89c0,2.278-0.203,4.094-0.4,5.85	c-0.189,1.693-0.386,3.444-0.397,5.614c-0.004,0.831-0.002,1.753,0,2.678c0.002,0.965,0.005,1.932,0,2.799	c-0.004,0.709,0.096,1.898,0.191,3.049c0.088,1.046,0.17,2.034,0.181,2.69c0.013,0.782,0.23,2.699,0.405,4.239	c0.106,0.936,0.202,1.778,0.241,2.261c0.092,1.129,0.973,2.408,2.006,2.911c0.319,0.155,0.688,0.232,1.077,0.313	c0.145,0.03,0.288,0.06,0.431,0.094c0.891,0.212,7.169-0.199,7.938-0.276c3.642-0.364,4.379-0.351,6.354-0.317	c0.764,0.013,1.718,0.03,3.103,0.03c0.812,0,2.79,0.087,4.536,0.164c1.288,0.057,2.482,0.109,3.066,0.121	c0.804,0.017,1.522,0.035,2.166,0.052c2.146,0.056,3.438,0.09,4.242-0.045c2.692-0.449,4.575-2.706,4.582-5.491	c-0.3-4.627-0.225-5.646-0.121-7.054C43.928,30.08,44,29.097,44,27c0-0.352-0.225-1.284-0.422-2.107	c-0.348-1.443-0.571-2.43-0.511-2.97l0.116-1.006c0.223-1.907,0.454-3.878,0.332-5.728c-0.032-0.495-0.06-1.029-0.088-1.586	c-0.141-2.771-0.315-6.218-1.363-7.848c-1.061-1.649-3.242-1.688-5.168-1.723c-0.363-0.006-0.716-0.013-1.049-0.029	c-0.698-0.038-1.683,0.096-2.945,0.262c-2.64,0.345-6.257,0.817-10.907,0.388c-3.248-0.301-4.071-0.234-5.114-0.151	c-0.876,0.071-1.867,0.15-4.424,0.047l-0.578-0.026C11.319,4.497,10.72,4.469,10.119,4.469z"/><path fill="#373837" d="M7.37,23.818c-0.232,3.201,0.019,4.985,0.019,8.393c0,0.418-0.168,2.957,0.492,3.582	c1.036,0.981,2.694,0.602,4.804,0.497c9.857-0.487,13.564,0.225,22.143-0.25c1.87-0.104,4.011-0.003,4.34-1.847	c0.131-0.736,0.302-4.539,0.259-5.286c-0.257-4.498-0.132-6.188-0.529-10.507c-0.042-0.46-0.121-0.954-0.446-1.283	c-0.336-0.339-0.848-0.416-1.322-0.465c-2.589-0.267-5.589,0.388-6.825-1.121c-0.654-0.798-1.478-2.172-2.908-2.287	c-0.719-0.058-1.422-0.202-2.141-0.158c-1.365,0.083-2.176-0.116-3.541-0.033c-0.929,0.056-2.347-0.01-3.17,0.426	c-0.639,0.339-1.625,2.476-2.252,2.836c-1.028,0.591-3.42,0.542-5.849,0.56c-0.497,0.004-0.972-0.043-1.469-0.018	c-1.704,0.084-1.702,1.864-1.703,2.752C7.268,21.256,7.373,22.173,7.37,23.818"/><path fill="#373837" d="M10.491,16.788c0.044-0.175,0.088-0.35,0.133-0.525c0.083-0.327,0.173-0.668,0.404-0.914	c0.33-0.35,0.856-0.414,1.335-0.456c0.461-0.041,0.971-0.068,1.339,0.213c0.223,0.17,0.359,0.434,0.427,0.706	c0.068,0.272,0.075,0.555,0.081,0.835"/><path fill="#d6e5e5" d="M23.884,19.826c-1.006,0.053-2.002,0.296-2.92,0.712c-0.547,0.248-1.069,0.559-1.518,0.958	c-1.474,1.309-1.99,3.393-2.109,5.361c-0.022,0.371,0.06,0.747,0.148,1.108c0.12,0.49,0.319,0.917,0.606,1.332	c0.643,0.929,1.316,1.887,2.288,2.466c0.341,0.203,0.711,0.354,1.087,0.478c1.554,0.513,3.282,0.576,4.818,0.011	c1.536-0.565,2.548-1.231,3.37-2.647c0.411-0.708,0.5-1.602,0.583-2.115c0.15-0.927,0.351-1.699,0.141-2.615	c-0.177-0.769-0.448-1.64-0.872-2.305c-0.635-0.996-1.043-1.393-2.003-2.08C26.526,19.789,24.686,19.656,23.884,19.826"/><path fill="#010101" d="M23.962,33.15c-0.874,0-1.772-0.146-2.652-0.436c-0.463-0.153-0.851-0.324-1.186-0.523	c-1.081-0.644-1.805-1.689-2.443-2.611c-0.327-0.472-0.55-0.962-0.681-1.498c-0.097-0.395-0.188-0.816-0.161-1.258	c0.155-2.581,0.921-4.5,2.275-5.704c0.449-0.399,1.002-0.749,1.644-1.04c0.97-0.439,2-0.692,3.062-0.753	c0.951-0.188,2.884-0.027,3.975,0.753c0.977,0.699,1.445,1.139,2.134,2.217c0.387,0.608,0.702,1.437,0.937,2.463	c0.202,0.875,0.072,1.616-0.065,2.401l-0.101,0.613c-0.082,0.549-0.205,1.378-0.612,2.079c-0.937,1.614-2.128,2.312-3.629,2.864	C25.677,33.006,24.831,33.15,23.962,33.15z M24.664,20.257c-0.263,0-0.497,0.02-0.677,0.058c-0.025,0.005-0.051,0.009-0.077,0.01	c-0.938,0.049-1.885,0.28-2.74,0.667c-0.549,0.249-1.018,0.544-1.392,0.876c-1.149,1.021-1.803,2.709-1.941,5.016	c-0.019,0.303,0.057,0.64,0.134,0.96c0.104,0.42,0.272,0.791,0.532,1.166c0.58,0.838,1.238,1.789,2.133,2.321	c0.271,0.161,0.595,0.303,0.988,0.433c1.541,0.508,3.134,0.514,4.488,0.016c1.335-0.491,2.32-1.068,3.109-2.428	c0.312-0.535,0.414-1.222,0.488-1.723l0.104-0.639c0.125-0.712,0.232-1.327,0.076-2.005c-0.209-0.916-0.48-1.639-0.806-2.149	c-0.608-0.955-0.983-1.305-1.872-1.941C26.593,20.452,25.486,20.257,24.664,20.257z M23.884,19.826h0.01H23.884z"/><path fill="#010101" d="M10.491,17.288c-0.04,0-0.081-0.005-0.122-0.015c-0.268-0.067-0.43-0.339-0.363-0.607l0.133-0.525	c0.084-0.332,0.198-0.788,0.526-1.135c0.479-0.507,1.187-0.569,1.654-0.61c0.429-0.039,1.144-0.102,1.687,0.314	c0.294,0.225,0.504,0.564,0.609,0.981c0.08,0.322,0.088,0.632,0.096,0.932c0.006,0.276-0.212,0.512-0.488,0.519	c-0.228-0.011-0.505-0.204-0.512-0.481c-0.007-0.27-0.013-0.512-0.066-0.726c-0.048-0.193-0.136-0.347-0.246-0.431	c-0.217-0.165-0.591-0.147-0.991-0.112c-0.421,0.037-0.814,0.087-1.015,0.3c-0.149,0.158-0.221,0.442-0.283,0.692l-0.133,0.525	C10.919,17.136,10.716,17.288,10.491,17.288z"/><path fill="#febf10" d="M33.233,18.962c-1.315-0.32-1.772,0.848-1.737,1.272c0.025,0.297,0.25,1.39,1.58,1.107	c0.855-0.182,0.958-0.888,0.864-1.41C33.874,19.555,33.691,19.164,33.233,18.962"/><path fill="#010101" d="M32.663,21.888c-0.378,0-0.707-0.103-0.982-0.308c-0.568-0.422-0.665-1.106-0.682-1.305	c-0.035-0.413,0.178-1.046,0.655-1.454c0.314-0.269,0.864-0.547,1.697-0.345c0.029,0.007,0.058,0.017,0.085,0.029	c0.539,0.24,0.884,0.703,0.996,1.339c0.181,1.006-0.311,1.786-1.252,1.986C33,21.869,32.827,21.888,32.663,21.888z M32.802,19.406	c-0.196,0-0.36,0.057-0.495,0.172c-0.237,0.202-0.318,0.52-0.312,0.613c0.002,0.018,0.036,0.403,0.282,0.586	c0.154,0.114,0.389,0.14,0.695,0.074c0.165-0.035,0.603-0.128,0.476-0.833c-0.065-0.369-0.239-0.511-0.379-0.583	C32.974,19.417,32.885,19.406,32.802,19.406z"/><path fill="#373837" d="M21.501,22.935c-0.497,0.404-0.917,0.902-1.233,1.46c-0.188,0.332-0.34,0.688-0.421,1.061	c-0.266,1.225,0.25,2.488,0.927,3.544c0.128,0.199,0.311,0.361,0.492,0.514c0.245,0.207,0.508,0.351,0.811,0.457	c0.679,0.236,1.384,0.476,2.099,0.409c0.251-0.024,0.498-0.085,0.738-0.162c0.991-0.319,1.901-0.935,2.478-1.801	s0.847-1.588,0.738-2.623c-0.054-0.518-0.344-1.01-0.494-1.305c-0.271-0.532-0.457-1.004-0.908-1.396	c-0.379-0.329-0.845-0.675-1.312-0.857c-0.699-0.273-1.058-0.324-1.808-0.317C22.844,21.926,21.849,22.547,21.501,22.935"/><path fill="#010101" d="M23.925,30.891c-0.726,0-1.404-0.237-2.012-0.448c-0.368-0.128-0.686-0.307-0.97-0.546	c-0.197-0.167-0.423-0.366-0.59-0.625c-0.915-1.428-1.25-2.747-0.994-3.921c0.085-0.392,0.244-0.796,0.475-1.201	c0.342-0.605,0.787-1.136,1.323-1.578c0.448-0.476,1.549-1.143,2.446-1.152c0.803-0.008,1.211,0.045,1.995,0.351	c0.444,0.174,0.935,0.492,1.457,0.945c0.46,0.398,0.689,0.864,0.911,1.315l0.175,0.345c0.171,0.326,0.429,0.817,0.486,1.366	c0.13,1.234-0.233,2.073-0.819,2.952c-0.611,0.917-1.585,1.628-2.741,2c-0.315,0.101-0.584,0.16-0.846,0.184	C24.122,30.886,24.022,30.891,23.925,30.891z M23.747,22.418c-0.043,0-0.088,0-0.134,0c-0.61,0.006-1.474,0.554-1.74,0.851	c-0.018,0.019-0.036,0.037-0.057,0.053c-0.451,0.368-0.826,0.812-1.112,1.318c-0.181,0.318-0.304,0.628-0.368,0.921	c-0.197,0.906,0.092,1.972,0.859,3.168c0.091,0.142,0.244,0.276,0.393,0.401c0.191,0.162,0.399,0.278,0.653,0.367	c0.594,0.207,1.271,0.448,1.888,0.383c0.188-0.017,0.389-0.062,0.632-0.14c0.942-0.303,1.729-0.873,2.216-1.603	c0.572-0.86,0.744-1.46,0.657-2.293c-0.038-0.358-0.234-0.732-0.378-1.006l-0.186-0.368c-0.203-0.411-0.363-0.735-0.669-1.001	c-0.438-0.379-0.829-0.638-1.167-0.77C24.632,22.465,24.335,22.418,23.747,22.418z M21.501,22.935h0.01H21.501z"/><path fill="#010101" d="M10.025,36.949c-0.974,0-1.821-0.161-2.488-0.792c-0.655-0.621-0.698-2.232-0.653-3.726l0.005-0.219	c0-1.238-0.033-2.26-0.064-3.215c-0.055-1.688-0.103-3.147,0.045-5.197c0.002-0.806-0.023-1.436-0.049-2.065	C6.795,21.087,6.77,20.44,6.771,19.61c0.001-0.863,0.004-3.143,2.179-3.25c0.302-0.015,0.601-0.005,0.897,0.005	c0.196,0.007,0.393,0.011,0.592,0.012l0.674-0.004c2.021-0.009,4.112-0.02,4.93-0.489c0.204-0.117,0.642-0.79,0.932-1.235	c0.558-0.857,0.926-1.393,1.335-1.609c0.755-0.399,1.817-0.431,2.755-0.459c0.221-0.006,0.431-0.013,0.62-0.024	c0.71-0.043,1.278-0.013,1.826,0.016c0.547,0.03,1.061,0.056,1.714,0.017c0.538-0.033,1.051,0.03,1.548,0.089	c0.221,0.026,0.441,0.053,0.664,0.07c1.439,0.116,2.319,1.259,2.962,2.094c0.102,0.133,0.199,0.26,0.293,0.374	c0.716,0.874,2.349,0.868,4.063,0.863c0.796-0.001,1.625-0.005,2.426,0.077c0.551,0.057,1.176,0.155,1.627,0.61	c0.429,0.435,0.536,1.021,0.588,1.589c0.239,2.598,0.289,4.23,0.348,6.121c0.038,1.25,0.079,2.6,0.183,4.402	c0.044,0.782-0.13,4.635-0.267,5.402c-0.366,2.061-2.527,2.156-4.264,2.233l-0.541,0.026c-4.249,0.236-7.283,0.18-10.497,0.124	c-3.278-0.059-6.671-0.12-11.648,0.126c-0.397,0.02-0.779,0.049-1.145,0.078C11.025,36.909,10.509,36.949,10.025,36.949z M9.287,17.352c-0.096,0-0.191,0.002-0.288,0.007c-1.021,0.05-1.226,0.897-1.228,2.249c-0.002,0.819,0.023,1.454,0.049,2.087	c0.025,0.647,0.051,1.294,0.049,2.125c0,0.012,0,0.023-0.001,0.035c-0.146,2.006-0.099,3.444-0.044,5.11	c0.031,0.964,0.064,1.997,0.064,3.247L7.883,32.46c-0.069,2.323,0.216,2.851,0.342,2.97c0.679,0.641,1.765,0.558,3.263,0.44	c0.373-0.029,0.765-0.059,1.173-0.08c5.012-0.249,8.421-0.186,11.715-0.127c3.195,0.058,6.212,0.111,10.425-0.122l0.551-0.027	c1.928-0.085,3.113-0.223,3.324-1.409c0.122-0.689,0.292-4.475,0.253-5.17c-0.104-1.813-0.146-3.171-0.185-4.429	c-0.058-1.875-0.107-3.493-0.344-6.061c-0.035-0.384-0.096-0.767-0.303-0.978c-0.218-0.219-0.622-0.277-1.018-0.318	c-0.748-0.077-1.55-0.075-2.321-0.072c-1.977,0.005-3.822,0.012-4.84-1.229c-0.1-0.122-0.203-0.256-0.312-0.398	c-0.587-0.763-1.252-1.627-2.249-1.707c-0.235-0.019-0.469-0.047-0.702-0.075c-0.475-0.057-0.927-0.11-1.369-0.083	c-0.711,0.043-1.279,0.013-1.827-0.016c-0.547-0.03-1.06-0.057-1.713-0.017c-0.198,0.012-0.419,0.019-0.651,0.025	c-0.787,0.023-1.767,0.053-2.315,0.343c-0.211,0.111-0.665,0.809-0.966,1.271c-0.461,0.708-0.858,1.319-1.271,1.557	c-1.047,0.602-3.075,0.611-5.424,0.622l-0.67,0.004c-0.213,0-0.424-0.005-0.634-0.013C9.638,17.358,9.464,17.352,9.287,17.352z M7.369,23.818h0.01H7.369z"/></svg>