<svg xmlns="http://www.w3.org/2000/svg"  viewBox="0 0 100 100" width="100px" height="100px"><path fill="#c7ede6" d="M87.215,56.71C88.35,54.555,89,52.105,89,49.5c0-6.621-4.159-12.257-10.001-14.478 C78.999,35.015,79,35.008,79,35c0-11.598-9.402-21-21-21c-9.784,0-17.981,6.701-20.313,15.757C36.211,29.272,34.638,29,33,29 c-7.692,0-14.023,5.793-14.89,13.252C12.906,43.353,9,47.969,9,53.5C9,59.851,14.149,65,20.5,65c0.177,0,0.352-0.012,0.526-0.022 C21.022,65.153,21,65.324,21,65.5C21,76.822,30.178,86,41.5,86c6.437,0,12.175-2.972,15.934-7.614C59.612,80.611,62.64,82,66,82 c4.65,0,8.674-2.65,10.666-6.518C77.718,75.817,78.837,76,80,76c6.075,0,11-4.925,11-11C91,61.689,89.53,58.727,87.215,56.71z"/><path fill="#fdfcef" d="M78.875,37.5c0,0,3.64,0,6.125,0s4.5-2.015,4.5-4.5c0-2.333-1.782-4.229-4.055-4.455 C85.467,28.364,85.5,28.187,85.5,28c0-2.485-2.015-4.5-4.5-4.5c-1.438,0-2.703,0.686-3.527,1.736 C77.333,22.6,75.171,20.5,72.5,20.5c-2.761,0-5,2.239-5,5c0,0.446,0.077,0.87,0.187,1.282C67.045,26.005,66.086,25.5,65,25.5 c-1.781,0-3.234,1.335-3.455,3.055C61.364,28.533,61.187,28.5,61,28.5c-2.485,0-4.5,2.015-4.5,4.5s2.015,4.5,4.5,4.5s9.5,0,9.5,0 h5.375V38h3V37.5z"/><path fill="#472b29" d="M72.5,20c-3.033,0-5.5,2.467-5.5,5.5c0,0.016,0,0.031,0,0.047C66.398,25.192,65.71,25,65,25 c-1.831,0-3.411,1.261-3.858,3.005C61.095,28.002,61.048,28,61,28c-2.757,0-5,2.243-5,5s2.243,5,5,5h14.875 c0.276,0,0.5-0.224,0.5-0.5s-0.224-0.5-0.5-0.5H61c-2.206,0-4-1.794-4-4s1.794-4,4-4c0.117,0,0.23,0.017,0.343,0.032l0.141,0.019 c0.021,0.003,0.041,0.004,0.062,0.004c0.246,0,0.462-0.185,0.495-0.437C62.232,27.125,63.504,26,65,26 c0.885,0,1.723,0.401,2.301,1.1c0.098,0.118,0.241,0.182,0.386,0.182c0.078,0,0.156-0.018,0.228-0.056 c0.209-0.107,0.314-0.346,0.254-0.573C68.054,26.218,68,25.852,68,25.5c0-2.481,2.019-4.5,4.5-4.5 c2.381,0,4.347,1.872,4.474,4.263c0.011,0.208,0.15,0.387,0.349,0.45c0.05,0.016,0.101,0.024,0.152,0.024 c0.15,0,0.296-0.069,0.392-0.192C78.638,24.563,79.779,24,81,24c2.206,0,4,1.794,4,4c0,0.117-0.017,0.23-0.032,0.343l-0.019,0.141 c-0.016,0.134,0.022,0.268,0.106,0.373s0.207,0.172,0.34,0.185C87.451,29.247,89,30.949,89,33c0,2.206-1.794,4-4,4h-6.125 c-0.276,0-0.5,0.224-0.5,0.5s0.224,0.5,0.5,0.5H85c2.757,0,5-2.243,5-5c0-2.397-1.689-4.413-4.003-4.877 C85.999,28.082,86,28.041,86,28c0-2.757-2.243-5-5-5c-1.176,0-2.293,0.416-3.183,1.164C77.219,21.76,75.055,20,72.5,20L72.5,20z"/><path fill="#472b29" d="M84.883,28.5c-1.326,0-2.508,0.897-2.874,2.182c-0.038,0.133,0.039,0.271,0.172,0.309 C82.205,30.997,82.228,31,82.25,31c0.109,0,0.209-0.072,0.24-0.182C82.795,29.748,83.779,29,84.883,29 c0.117,0,0.23,0.014,0.342,0.029c0.012,0.002,0.023,0.003,0.035,0.003c0.121,0,0.229-0.092,0.246-0.217 c0.019-0.137-0.077-0.263-0.214-0.281C85.158,28.516,85.022,28.5,84.883,28.5L84.883,28.5z"/><path fill="#fff" d="M15.405,51H5.5C5.224,51,5,50.776,5,50.5S5.224,50,5.5,50h9.905c0.276,0,0.5,0.224,0.5,0.5 S15.682,51,15.405,51z"/><path fill="#fff" d="M18.5,51h-1c-0.276,0-0.5-0.224-0.5-0.5s0.224-0.5,0.5-0.5h1c0.276,0,0.5,0.224,0.5,0.5 S18.777,51,18.5,51z"/><path fill="#fff" d="M23.491,53H14.5c-0.276,0-0.5-0.224-0.5-0.5s0.224-0.5,0.5-0.5h8.991c0.276,0,0.5,0.224,0.5,0.5 S23.767,53,23.491,53z"/><path fill="#fff" d="M12.5,53h-1c-0.276,0-0.5-0.224-0.5-0.5s0.224-0.5,0.5-0.5h1c0.276,0,0.5,0.224,0.5,0.5 S12.777,53,12.5,53z"/><path fill="#fff" d="M9.5,53h-2C7.224,53,7,52.776,7,52.5S7.224,52,7.5,52h2c0.276,0,0.5,0.224,0.5,0.5S9.777,53,9.5,53 z"/><path fill="#fff" d="M15.5,55h-2c-0.276,0-0.5-0.224-0.5-0.5s0.224-0.5,0.5-0.5h2c0.276,0,0.5,0.224,0.5,0.5 S15.776,55,15.5,55z"/><path fill="#fff" d="M18.5,46c-0.177,0-0.823,0-1,0c-0.276,0-0.5,0.224-0.5,0.5s0.224,0.5,0.5,0.5c0.177,0,0.823,0,1,0 c0.276,0,0.5-0.224,0.5-0.5S18.776,46,18.5,46z"/><path fill="#fff" d="M18.5,48c-0.177,0-4.823,0-5,0c-0.276,0-0.5,0.224-0.5,0.5s0.224,0.5,0.5,0.5c0.177,0,4.823,0,5,0 c0.276,0,0.5-0.224,0.5-0.5S18.776,48,18.5,48z"/><path fill="#fff" d="M23.5,50c-0.177,0-2.823,0-3,0c-0.276,0-0.5,0.224-0.5,0.5s0.224,0.5,0.5,0.5c0.177,0,2.823,0,3,0 c0.276,0,0.5-0.224,0.5-0.5S23.776,50,23.5,50z"/><path fill="#fff" d="M87.5,66h-10c-0.276,0-0.5-0.224-0.5-0.5s0.224-0.5,0.5-0.5h10c0.276,0,0.5,0.224,0.5,0.5 S87.776,66,87.5,66z"/><path fill="#fff" d="M91.5,66h-2c-0.276,0-0.5-0.224-0.5-0.5s0.224-0.5,0.5-0.5h2c0.276,0,0.5,0.224,0.5,0.5 S91.776,66,91.5,66z"/><path fill="#fff" d="M96.5,68h-10c-0.276,0-0.5-0.224-0.5-0.5s0.224-0.5,0.5-0.5h10c0.276,0,0.5,0.224,0.5,0.5 S96.777,68,96.5,68z"/><path fill="#fff" d="M84.5,68h-1c-0.276,0-0.5-0.224-0.5-0.5s0.224-0.5,0.5-0.5h1c0.276,0,0.5,0.224,0.5,0.5 S84.776,68,84.5,68z"/><path fill="#fff" d="M81.375,68H79.5c-0.276,0-0.5-0.224-0.5-0.5s0.224-0.5,0.5-0.5h1.875c0.276,0,0.5,0.224,0.5,0.5 S81.651,68,81.375,68z"/><path fill="#fff" d="M90.5,64h-5c-0.276,0-0.5-0.224-0.5-0.5s0.224-0.5,0.5-0.5h5c0.276,0,0.5,0.224,0.5,0.5 S90.777,64,90.5,64z"/><path fill="#fff" d="M87.5,70h-2c-0.276,0-0.5-0.224-0.5-0.5s0.224-0.5,0.5-0.5h2c0.276,0,0.5,0.224,0.5,0.5 S87.776,70,87.5,70z"/><path fill="#efeddf" d="M29,63.364V36.636C29,32.419,32.419,29,36.636,29h26.727C67.581,29,71,32.419,71,36.636v26.727 C71,67.581,67.581,71,63.364,71H36.636C32.419,71,29,67.581,29,63.364z"/><path fill="#472b29" d="M64,29.4c3.639,0,6.6,2.961,6.6,6.6v28c0,3.639-2.961,6.6-6.6,6.6H36c-3.639,0-6.6-2.961-6.6-6.6V36 c0-3.639,2.961-6.6,6.6-6.6H64 M64,28H36c-4.418,0-8,3.582-8,8v28c0,4.418,3.582,8,8,8h28c4.418,0,8-3.582,8-8V36 C72,31.582,68.418,28,64,28L64,28z"/><circle cx="50" cy="50" r="18" fill="#848484"/><path fill="#472b29" d="M64.926,40.186c-0.08,0-0.159-0.039-0.207-0.11c-3.311-4.9-8.813-7.826-14.719-7.826 c-0.708,0-1.424,0.042-2.125,0.125c-0.132,0.017-0.261-0.081-0.277-0.219c-0.017-0.137,0.082-0.261,0.219-0.277 c0.721-0.086,1.456-0.129,2.184-0.129c6.072,0,11.729,3.008,15.133,8.046c0.077,0.115,0.047,0.27-0.067,0.347 C65.022,40.172,64.974,40.186,64.926,40.186z"/><path fill="#472b29" d="M66.773,43.707c-0.1,0-0.194-0.061-0.232-0.159c-0.206-0.526-0.439-1.048-0.694-1.553 c-0.063-0.123-0.014-0.273,0.109-0.336c0.124-0.061,0.274-0.013,0.336,0.11c0.263,0.519,0.503,1.056,0.714,1.597 c0.051,0.128-0.013,0.273-0.142,0.324C66.834,43.701,66.804,43.707,66.773,43.707z"/><path fill="#472b29" d="M61.845,63.804c-0.069,0-0.139-0.029-0.188-0.085c-0.091-0.104-0.081-0.262,0.023-0.353 c3.858-3.374,6.07-8.246,6.07-13.366c0-1.571-0.205-3.128-0.609-4.629c-0.036-0.133,0.043-0.271,0.176-0.306 c0.139-0.035,0.271,0.043,0.307,0.176c0.416,1.543,0.627,3.144,0.627,4.759c0,5.265-2.274,10.273-6.241,13.742 C61.962,63.783,61.903,63.804,61.845,63.804z"/><path fill="#472b29" d="M58.31,66.221c-0.09,0-0.177-0.049-0.222-0.134c-0.064-0.123-0.017-0.273,0.106-0.337 c0.562-0.293,1.114-0.62,1.642-0.972c0.114-0.076,0.27-0.046,0.347,0.069c0.077,0.115,0.045,0.27-0.069,0.347 c-0.542,0.362-1.111,0.698-1.688,0.999C58.389,66.212,58.349,66.221,58.31,66.221z"/><path fill="#472b29" d="M50,68.25c-6.785,0-12.971-3.729-16.145-9.733c-0.064-0.122-0.018-0.273,0.104-0.338 c0.121-0.064,0.273-0.018,0.338,0.104C37.384,64.123,43.401,67.75,50,67.75c2.239,0,4.422-0.412,6.489-1.224 c0.127-0.05,0.273,0.013,0.324,0.142c0.05,0.128-0.013,0.273-0.142,0.324C54.547,67.827,52.302,68.25,50,68.25z"/><path fill="#472b29" d="M33.243,56.835c-0.1,0-0.194-0.06-0.232-0.159c-0.446-1.134-0.779-2.319-0.988-3.52 c-0.024-0.136,0.067-0.266,0.203-0.289c0.133-0.029,0.265,0.066,0.289,0.203c0.204,1.168,0.527,2.32,0.961,3.423 c0.051,0.128-0.013,0.273-0.141,0.324C33.304,56.83,33.273,56.835,33.243,56.835z"/><path fill="#472b29" d="M32.004,49.87c-0.001,0-0.003,0-0.005,0c-0.138-0.003-0.248-0.117-0.245-0.255 c0.138-6.647,3.887-12.697,9.784-15.788c0.122-0.064,0.273-0.017,0.337,0.105c0.064,0.123,0.017,0.273-0.105,0.337 c-5.736,3.007-9.382,8.892-9.516,15.356C32.251,49.762,32.14,49.87,32.004,49.87z"/><path fill="#472b29" d="M43.419,33.491c-0.1,0-0.194-0.06-0.233-0.159c-0.05-0.128,0.013-0.273,0.142-0.324 c0.845-0.332,1.725-0.603,2.614-0.805c0.134-0.035,0.268,0.054,0.299,0.188s-0.054,0.269-0.188,0.299 c-0.865,0.197-1.72,0.46-2.542,0.783C43.481,33.485,43.45,33.491,43.419,33.491z"/><path fill="#472b29" d="M50,37c-0.276,0-0.5-0.224-0.5-0.5v-3c0-0.276,0.224-0.5,0.5-0.5s0.5,0.224,0.5,0.5v3 C50.5,36.776,50.276,37,50,37z"/><path fill="#472b29" d="M47.655,37.205c-0.238,0-0.449-0.17-0.492-0.413l-0.521-2.955c-0.048-0.272,0.133-0.531,0.405-0.579 c0.269-0.049,0.531,0.133,0.579,0.405l0.521,2.955c0.048,0.272-0.133,0.531-0.405,0.579C47.713,37.203,47.684,37.205,47.655,37.205 z"/><path fill="#472b29" d="M45.383,37.814c-0.204,0-0.396-0.126-0.47-0.329l-1.026-2.819c-0.095-0.259,0.039-0.546,0.299-0.641 c0.258-0.094,0.546,0.039,0.641,0.299l1.026,2.819c0.095,0.259-0.039,0.546-0.299,0.641C45.498,37.804,45.439,37.814,45.383,37.814 z"/><path fill="#472b29" d="M43.25,38.809c-0.173,0-0.341-0.089-0.434-0.25l-1.5-2.598c-0.138-0.239-0.056-0.545,0.183-0.683 c0.238-0.138,0.544-0.057,0.683,0.183l1.5,2.598c0.138,0.239,0.056,0.545-0.183,0.683C43.421,38.787,43.335,38.809,43.25,38.809z"/><path fill="#472b29" d="M41.323,40.158c-0.143,0-0.285-0.061-0.383-0.179l-1.928-2.298c-0.178-0.211-0.15-0.527,0.062-0.704 c0.212-0.178,0.528-0.149,0.704,0.062l1.928,2.298c0.178,0.211,0.15,0.527-0.062,0.704C41.55,40.12,41.436,40.158,41.323,40.158z"/><path fill="#472b29" d="M39.658,41.822c-0.113,0-0.227-0.039-0.321-0.117l-2.298-1.928 c-0.211-0.177-0.239-0.493-0.062-0.704c0.178-0.211,0.492-0.239,0.704-0.062l2.298,1.928c0.211,0.177,0.239,0.493,0.062,0.704 C39.942,41.762,39.801,41.822,39.658,41.822z"/><path fill="#472b29" d="M38.308,43.75c-0.085,0-0.171-0.021-0.25-0.067l-2.598-1.5c-0.239-0.138-0.321-0.444-0.183-0.683 c0.138-0.239,0.444-0.321,0.683-0.183l2.598,1.5c0.239,0.138,0.321,0.444,0.183,0.683C38.649,43.66,38.481,43.75,38.308,43.75z"/><path fill="#472b29" d="M37.314,45.883c-0.057,0-0.115-0.01-0.171-0.03l-2.819-1.026c-0.26-0.094-0.394-0.381-0.299-0.641 c0.094-0.26,0.383-0.393,0.641-0.299l2.819,1.026c0.26,0.094,0.394,0.381,0.299,0.641C37.71,45.757,37.518,45.883,37.314,45.883z"/><path fill="#472b29" d="M36.706,48.156c-0.029,0-0.058-0.002-0.087-0.008l-2.955-0.521 c-0.272-0.048-0.454-0.307-0.405-0.579c0.048-0.272,0.306-0.457,0.579-0.405l2.955,0.521c0.272,0.048,0.454,0.307,0.405,0.579 C37.155,47.985,36.944,48.156,36.706,48.156z"/><path fill="#472b29" d="M36.5,50.5h-3c-0.276,0-0.5-0.224-0.5-0.5s0.224-0.5,0.5-0.5h3c0.276,0,0.5,0.224,0.5,0.5 S36.776,50.5,36.5,50.5z"/><path fill="#472b29" d="M33.75,53.365c-0.238,0-0.449-0.17-0.492-0.413c-0.048-0.272,0.133-0.531,0.405-0.579l2.955-0.521 c0.269-0.051,0.531,0.133,0.579,0.405c0.048,0.272-0.133,0.531-0.405,0.579l-2.955,0.521C33.808,53.363,33.779,53.365,33.75,53.365 z"/><path fill="#472b29" d="M34.495,56.144c-0.204,0-0.396-0.126-0.47-0.329c-0.095-0.259,0.039-0.546,0.299-0.641l2.819-1.026 c0.259-0.094,0.546,0.039,0.641,0.299c0.095,0.259-0.039,0.546-0.299,0.641l-2.819,1.026C34.61,56.134,34.552,56.144,34.495,56.144 z"/><path fill="#472b29" d="M35.711,58.75c-0.173,0-0.341-0.089-0.434-0.25c-0.138-0.239-0.056-0.545,0.183-0.683l2.598-1.5 c0.238-0.139,0.545-0.057,0.683,0.183c0.138,0.239,0.056,0.545-0.183,0.683l-2.598,1.5C35.882,58.729,35.796,58.75,35.711,58.75z"/><path fill="#472b29" d="M37.361,61.106c-0.143,0-0.285-0.061-0.383-0.179c-0.178-0.211-0.15-0.527,0.062-0.704l2.298-1.928 c0.212-0.178,0.528-0.15,0.704,0.062c0.178,0.211,0.15,0.527-0.062,0.704l-2.298,1.928C37.588,61.067,37.474,61.106,37.361,61.106z"/><path fill="#472b29" d="M39.394,63.14c-0.113,0-0.227-0.039-0.321-0.117c-0.211-0.177-0.239-0.493-0.062-0.704l1.928-2.298 c0.177-0.212,0.493-0.239,0.704-0.062c0.211,0.177,0.239,0.493,0.062,0.704l-1.928,2.298C39.678,63.079,39.537,63.14,39.394,63.14z"/><path fill="#472b29" d="M41.75,64.79c-0.085,0-0.171-0.021-0.25-0.067c-0.239-0.138-0.321-0.444-0.183-0.683l1.5-2.598 c0.138-0.24,0.443-0.322,0.683-0.183c0.239,0.138,0.321,0.444,0.183,0.683l-1.5,2.598C42.09,64.7,41.922,64.79,41.75,64.79z"/><path fill="#472b29" d="M44.356,66.005c-0.057,0-0.115-0.01-0.171-0.03c-0.26-0.094-0.394-0.381-0.299-0.641l1.026-2.819 c0.094-0.259,0.383-0.392,0.641-0.299c0.26,0.094,0.394,0.381,0.299,0.641l-1.026,2.819C44.752,65.879,44.561,66.005,44.356,66.005 z"/><path fill="#472b29" d="M47.135,66.75c-0.029,0-0.058-0.002-0.087-0.008c-0.272-0.048-0.454-0.307-0.405-0.579l0.521-2.955 c0.047-0.272,0.308-0.455,0.579-0.405c0.272,0.048,0.454,0.307,0.405,0.579l-0.521,2.955C47.584,66.579,47.374,66.75,47.135,66.75z"/><path fill="#472b29" d="M50,67c-0.276,0-0.5-0.224-0.5-0.5v-3c0-0.276,0.224-0.5,0.5-0.5s0.5,0.224,0.5,0.5v3 C50.5,66.776,50.276,67,50,67z"/><path fill="#472b29" d="M52.865,66.75c-0.238,0-0.449-0.17-0.492-0.413l-0.521-2.955c-0.048-0.272,0.133-0.531,0.405-0.579 c0.27-0.051,0.532,0.133,0.579,0.405l0.521,2.955c0.048,0.272-0.133,0.531-0.405,0.579C52.923,66.747,52.894,66.75,52.865,66.75z"/><path fill="#472b29" d="M55.644,66.005c-0.204,0-0.396-0.126-0.47-0.329l-1.026-2.819c-0.095-0.259,0.039-0.546,0.299-0.641 c0.259-0.093,0.546,0.04,0.641,0.299l1.026,2.819c0.095,0.259-0.039,0.546-0.299,0.641C55.758,65.995,55.7,66.005,55.644,66.005z"/><path fill="#472b29" d="M58.25,64.79c-0.173,0-0.341-0.089-0.434-0.25l-1.5-2.598c-0.138-0.239-0.056-0.545,0.183-0.683 c0.237-0.139,0.544-0.057,0.683,0.183l1.5,2.598c0.138,0.239,0.056,0.545-0.183,0.683C58.421,64.768,58.335,64.79,58.25,64.79z"/><path fill="#472b29" d="M60.606,63.14c-0.143,0-0.285-0.061-0.383-0.179l-1.928-2.298c-0.178-0.211-0.15-0.527,0.062-0.704 c0.212-0.178,0.528-0.15,0.704,0.062l1.928,2.298c0.178,0.211,0.15,0.527-0.062,0.704C60.833,63.101,60.72,63.14,60.606,63.14z"/><path fill="#472b29" d="M62.639,61.106c-0.113,0-0.227-0.039-0.321-0.117l-2.298-1.928 c-0.211-0.177-0.239-0.493-0.062-0.704c0.177-0.212,0.493-0.239,0.704-0.062l2.298,1.928c0.211,0.177,0.239,0.493,0.062,0.704 C62.924,61.045,62.782,61.106,62.639,61.106z"/><path fill="#472b29" d="M64.289,58.75c-0.085,0-0.171-0.021-0.25-0.067l-2.598-1.5c-0.239-0.138-0.321-0.444-0.183-0.683 c0.138-0.239,0.444-0.322,0.683-0.183l2.598,1.5c0.239,0.138,0.321,0.444,0.183,0.683C64.63,58.66,64.462,58.75,64.289,58.75z"/><path fill="#472b29" d="M65.505,56.144c-0.057,0-0.114-0.01-0.171-0.03l-2.819-1.026c-0.26-0.094-0.394-0.381-0.299-0.641 c0.095-0.26,0.384-0.393,0.641-0.299l2.819,1.026c0.26,0.094,0.394,0.381,0.299,0.641C65.9,56.018,65.709,56.144,65.505,56.144z"/><path fill="#472b29" d="M66.25,53.365c-0.029,0-0.059-0.002-0.088-0.008l-2.954-0.521c-0.272-0.048-0.454-0.307-0.405-0.579 c0.047-0.272,0.309-0.455,0.579-0.405l2.954,0.521c0.271,0.048,0.453,0.307,0.405,0.579C66.698,53.195,66.487,53.365,66.25,53.365z"/><path fill="#472b29" d="M66.5,50.5h-3c-0.276,0-0.5-0.224-0.5-0.5s0.224-0.5,0.5-0.5h3c0.276,0,0.5,0.224,0.5,0.5 S66.776,50.5,66.5,50.5z"/><path fill="#472b29" d="M63.294,48.156c-0.238,0-0.449-0.17-0.492-0.413c-0.048-0.272,0.133-0.531,0.405-0.579l2.954-0.521 c0.269-0.05,0.53,0.132,0.579,0.405c0.048,0.272-0.134,0.531-0.405,0.579l-2.954,0.521C63.353,48.153,63.323,48.156,63.294,48.156z"/><path fill="#472b29" d="M62.686,45.883c-0.204,0-0.396-0.126-0.47-0.329c-0.095-0.259,0.039-0.546,0.299-0.641l2.819-1.026 c0.262-0.094,0.546,0.039,0.641,0.299c0.095,0.259-0.039,0.546-0.299,0.641l-2.819,1.026 C62.801,45.873,62.743,45.883,62.686,45.883z"/><path fill="#472b29" d="M61.692,43.75c-0.173,0-0.341-0.089-0.434-0.25c-0.138-0.239-0.056-0.545,0.183-0.683l2.598-1.5 c0.238-0.138,0.544-0.057,0.683,0.183c0.138,0.239,0.056,0.545-0.183,0.683l-2.598,1.5C61.863,43.729,61.777,43.75,61.692,43.75z"/><path fill="#472b29" d="M60.342,41.822c-0.143,0-0.285-0.061-0.383-0.179c-0.178-0.211-0.15-0.527,0.062-0.704l2.298-1.928 c0.212-0.177,0.528-0.149,0.704,0.062c0.178,0.211,0.15,0.527-0.062,0.704l-2.298,1.928C60.569,41.784,60.456,41.822,60.342,41.822 z"/><path fill="#472b29" d="M58.677,40.158c-0.113,0-0.227-0.039-0.321-0.117c-0.211-0.177-0.239-0.493-0.062-0.704l1.928-2.298 c0.177-0.211,0.492-0.239,0.704-0.062c0.211,0.177,0.239,0.493,0.062,0.704l-1.928,2.298C58.962,40.098,58.82,40.158,58.677,40.158 z"/><path fill="#472b29" d="M56.75,38.809c-0.085,0-0.171-0.021-0.25-0.067c-0.239-0.138-0.321-0.444-0.183-0.683l1.5-2.598 c0.138-0.24,0.444-0.321,0.683-0.183c0.239,0.138,0.321,0.444,0.183,0.683l-1.5,2.598C57.09,38.719,56.922,38.809,56.75,38.809z"/><path fill="#472b29" d="M54.617,37.814c-0.057,0-0.115-0.01-0.171-0.03c-0.26-0.094-0.394-0.381-0.299-0.641l1.026-2.819 c0.095-0.26,0.381-0.393,0.641-0.299c0.26,0.094,0.394,0.381,0.299,0.641l-1.026,2.819C55.013,37.688,54.821,37.814,54.617,37.814z"/><path fill="#472b29" d="M48.059,43.255c-0.221,0-0.422-0.147-0.482-0.371l-0.777-2.897 c-0.072-0.267,0.087-0.541,0.354-0.612c0.269-0.071,0.541,0.086,0.612,0.354l0.777,2.897c0.072,0.267-0.087,0.541-0.354,0.612 C48.145,43.25,48.102,43.255,48.059,43.255z"/><path fill="#472b29" d="M50,43c-0.276,0-0.5-0.224-0.5-0.5v-3c0-0.276,0.224-0.5,0.5-0.5s0.5,0.224,0.5,0.5v3 C50.5,42.776,50.276,43,50,43z"/><path fill="#472b29" d="M51.941,43.255c-0.043,0-0.086-0.005-0.13-0.017c-0.267-0.071-0.425-0.346-0.354-0.612l0.777-2.897 c0.072-0.267,0.347-0.424,0.612-0.354c0.267,0.071,0.425,0.346,0.354,0.612l-0.777,2.897 C52.364,43.108,52.162,43.255,51.941,43.255z"/><path fill="#472b29" d="M53.75,44.005c-0.085,0-0.171-0.021-0.25-0.067c-0.239-0.138-0.321-0.444-0.183-0.683l1.5-2.598 c0.138-0.239,0.443-0.321,0.683-0.183c0.239,0.138,0.321,0.444,0.183,0.683l-1.5,2.598C54.09,43.915,53.922,44.005,53.75,44.005z"/><path fill="#472b29" d="M55.303,45.197c-0.128,0-0.256-0.049-0.354-0.146c-0.195-0.195-0.195-0.512,0-0.707l2.122-2.122 c0.195-0.195,0.512-0.195,0.707,0s0.195,0.512,0,0.707l-2.122,2.122C55.559,45.148,55.431,45.197,55.303,45.197z"/><path fill="#472b29" d="M56.496,46.75c-0.173,0-0.341-0.089-0.434-0.25c-0.138-0.239-0.056-0.545,0.183-0.683l2.598-1.5 c0.238-0.139,0.544-0.057,0.683,0.183c0.138,0.239,0.056,0.545-0.183,0.683l-2.598,1.5C56.667,46.729,56.581,46.75,56.496,46.75z"/><path fill="#472b29" d="M57.244,48.559c-0.221,0-0.422-0.147-0.482-0.371c-0.072-0.267,0.087-0.541,0.354-0.612l2.897-0.777 c0.266-0.071,0.541,0.087,0.612,0.354s-0.087,0.541-0.354,0.612l-2.897,0.777C57.331,48.554,57.287,48.559,57.244,48.559z"/><path fill="#472b29" d="M42.575,57.925c-0.128,0-0.256-0.049-0.354-0.146c-0.195-0.195-0.195-0.512,0-0.707l2.122-2.122 c0.195-0.195,0.512-0.195,0.707,0s0.195,0.512,0,0.707l-2.122,2.122C42.831,57.876,42.703,57.925,42.575,57.925z"/><path fill="#472b29" d="M40.907,55.75c-0.173,0-0.341-0.089-0.434-0.25c-0.138-0.239-0.056-0.545,0.183-0.683l2.598-1.5 c0.238-0.138,0.544-0.056,0.683,0.183c0.138,0.239,0.056,0.545-0.183,0.683l-2.598,1.5C41.078,55.729,40.992,55.75,40.907,55.75z"/><path fill="#472b29" d="M39.857,53.218c-0.221,0-0.422-0.147-0.482-0.371c-0.072-0.267,0.087-0.541,0.354-0.612l2.897-0.777 c0.268-0.07,0.541,0.087,0.612,0.354s-0.087,0.541-0.354,0.612l-2.897,0.777C39.944,53.212,39.9,53.218,39.857,53.218z"/><path fill="#472b29" d="M42.5,50.5h-3c-0.276,0-0.5-0.224-0.5-0.5s0.224-0.5,0.5-0.5h3c0.276,0,0.5,0.224,0.5,0.5 S42.776,50.5,42.5,50.5z"/><path fill="#472b29" d="M42.756,48.559c-0.043,0-0.086-0.005-0.13-0.017l-2.897-0.777c-0.267-0.071-0.425-0.346-0.354-0.612 c0.072-0.267,0.347-0.423,0.612-0.354l2.897,0.777c0.267,0.071,0.425,0.346,0.354,0.612C43.178,48.412,42.977,48.559,42.756,48.559 z"/><path fill="#472b29" d="M43.504,46.75c-0.085,0-0.171-0.021-0.25-0.067l-2.598-1.5c-0.239-0.138-0.321-0.444-0.183-0.683 c0.138-0.24,0.444-0.322,0.683-0.183l2.598,1.5c0.239,0.138,0.321,0.444,0.183,0.683C43.845,46.66,43.677,46.75,43.504,46.75z"/><path fill="#472b29" d="M44.697,45.197c-0.128,0-0.256-0.049-0.354-0.146l-2.122-2.122c-0.195-0.195-0.195-0.512,0-0.707 s0.512-0.195,0.707,0l2.122,2.122c0.195,0.195,0.195,0.512,0,0.707C44.953,45.148,44.825,45.197,44.697,45.197z"/><path fill="#472b29" d="M60.143,53.218c-0.043,0-0.086-0.005-0.13-0.017l-2.897-0.777c-0.267-0.071-0.425-0.346-0.354-0.612 c0.072-0.267,0.348-0.423,0.612-0.354l2.897,0.777c0.267,0.071,0.425,0.346,0.354,0.612C60.565,53.071,60.363,53.218,60.143,53.218 z"/><path fill="#472b29" d="M59.093,55.75c-0.085,0-0.171-0.021-0.25-0.067l-2.598-1.5c-0.239-0.138-0.321-0.444-0.183-0.683 s0.444-0.321,0.683-0.183l2.598,1.5c0.239,0.138,0.321,0.444,0.183,0.683C59.434,55.66,59.266,55.75,59.093,55.75z"/><path fill="#472b29" d="M57.425,57.925c-0.128,0-0.256-0.049-0.354-0.146l-2.122-2.122c-0.195-0.195-0.195-0.512,0-0.707 s0.512-0.195,0.707,0l2.122,2.122c0.195,0.195,0.195,0.512,0,0.707C57.681,57.876,57.553,57.925,57.425,57.925z"/><path fill="#472b29" d="M55.25,59.593c-0.173,0-0.341-0.089-0.434-0.25l-1.5-2.598c-0.138-0.239-0.056-0.545,0.183-0.683 c0.238-0.139,0.544-0.057,0.683,0.183l1.5,2.598c0.138,0.239,0.056,0.545-0.183,0.683C55.421,59.572,55.335,59.593,55.25,59.593z"/><path fill="#472b29" d="M52.717,60.642c-0.221,0-0.422-0.147-0.482-0.371l-0.777-2.897 c-0.072-0.267,0.087-0.541,0.354-0.612c0.266-0.071,0.541,0.087,0.612,0.354l0.777,2.897c0.072,0.267-0.087,0.541-0.354,0.612 C52.804,60.637,52.76,60.642,52.717,60.642z"/><path fill="#472b29" d="M50,61c-0.276,0-0.5-0.224-0.5-0.5v-3c0-0.276,0.224-0.5,0.5-0.5s0.5,0.224,0.5,0.5v3 C50.5,60.776,50.276,61,50,61z"/><path fill="#472b29" d="M47.283,60.642c-0.043,0-0.086-0.005-0.13-0.017c-0.267-0.071-0.425-0.346-0.354-0.612l0.777-2.897 c0.072-0.267,0.347-0.423,0.612-0.354c0.267,0.071,0.425,0.346,0.354,0.612l-0.777,2.897 C47.705,60.495,47.503,60.642,47.283,60.642z"/><path fill="#b2b0a6" d="M50,58.75c-4.825,0-8.75-3.925-8.75-8.75s3.925-8.75,8.75-8.75s8.75,3.925,8.75,8.75 S54.825,58.75,50,58.75z M50,43.75c-3.446,0-6.25,2.804-6.25,6.25s2.804,6.25,6.25,6.25s6.25-2.804,6.25-6.25 S53.446,43.75,50,43.75z"/><path fill="#472b29" d="M50,41.5c4.687,0,8.5,3.813,8.5,8.5s-3.813,8.5-8.5,8.5s-8.5-3.813-8.5-8.5S45.313,41.5,50,41.5 M50,56.5c3.584,0,6.5-2.916,6.5-6.5s-2.916-6.5-6.5-6.5c-3.584,0-6.5,2.916-6.5,6.5S46.416,56.5,50,56.5 M50,41 c-4.962,0-9,4.038-9,9s4.038,9,9,9s9-4.038,9-9S54.962,41,50,41L50,41z M50,56c-3.309,0-6-2.691-6-6s2.691-6,6-6 c3.309,0,6,2.691,6,6S53.309,56,50,56L50,56z"/><path fill="#472b29" d="M52.345,37.205c-0.029,0-0.058-0.002-0.087-0.008c-0.272-0.048-0.454-0.307-0.405-0.579l0.521-2.955 c0.047-0.272,0.309-0.454,0.579-0.405c0.272,0.048,0.454,0.307,0.405,0.579l-0.521,2.955 C52.794,37.035,52.583,37.205,52.345,37.205z"/><path fill="#efeddf" d="M50,64.75c-8.133,0-14.75-6.617-14.75-14.75S41.867,35.25,50,35.25S64.75,41.867,64.75,50 S58.133,64.75,50,64.75z M51.443,51.25c-0.445,0-0.86,0.239-1.083,0.625l-4.632,8.024c-0.193,0.334-0.223,0.733-0.08,1.094 c0.141,0.355,0.429,0.622,0.791,0.731c1.15,0.349,2.348,0.526,3.561,0.526c5.721,0,10.622-3.889,11.92-9.458 c0.087-0.375,0-0.764-0.241-1.067c-0.24-0.302-0.598-0.476-0.982-0.476H51.443z M42.482,40.738c-0.32,0-0.625,0.121-0.859,0.34 C39.125,43.42,37.75,46.588,37.75,50s1.375,6.58,3.873,8.921c0.234,0.22,0.539,0.34,0.859,0.34c0.449,0,0.866-0.24,1.089-0.627 l4.625-8.01c0.223-0.386,0.223-0.864,0-1.25l-4.625-8.01C43.348,40.979,42.931,40.738,42.482,40.738z M50,37.75 c-1.213,0-2.411,0.177-3.561,0.526c-0.362,0.11-0.65,0.376-0.791,0.731c-0.143,0.36-0.113,0.759,0.08,1.094l4.632,8.024 c0.222,0.386,0.637,0.625,1.083,0.625h9.253c0.384,0,0.743-0.173,0.982-0.476c0.241-0.303,0.328-0.691,0.241-1.067 C60.622,41.639,55.721,37.75,50,37.75z"/><path fill="#472b29" d="M50,35.5c7.995,0,14.5,6.505,14.5,14.5S57.995,64.5,50,64.5S35.5,57.995,35.5,50 S42.005,35.5,50,35.5 M51.443,49h9.253c0.461,0,0.891-0.208,1.179-0.57c0.288-0.363,0.393-0.829,0.288-1.279 C60.839,41.469,55.837,37.5,50,37.5c-1.237,0-2.459,0.18-3.633,0.536c-0.436,0.132-0.783,0.453-0.951,0.879 c-0.171,0.432-0.136,0.909,0.096,1.31l4.633,8.024C50.411,48.713,50.909,49,51.443,49 M42.482,59.512 c0.538,0,1.038-0.288,1.306-0.752l4.624-8.01c0.267-0.463,0.267-1.037,0-1.5l-4.624-8.01c-0.268-0.464-0.768-0.752-1.306-0.752 c-0.384,0-0.75,0.145-1.03,0.408C38.903,43.285,37.5,46.519,37.5,50s1.403,6.715,3.951,9.104 C41.732,59.367,42.098,59.512,42.482,59.512 M50,62.5c5.837,0,10.839-3.969,12.163-9.651c0.105-0.45,0-0.916-0.288-1.279 C61.587,51.208,61.157,51,60.696,51h-9.253c-0.534,0-1.032,0.287-1.299,0.75l-4.633,8.024c-0.232,0.401-0.266,0.879-0.096,1.31 c0.169,0.427,0.515,0.747,0.951,0.879C47.541,62.32,48.763,62.5,50,62.5 M50,35c-8.28,0-15,6.72-15,15s6.72,15,15,15s15-6.72,15-15 S58.28,35,50,35L50,35z M51.443,48.5c-0.357,0-0.687-0.191-0.866-0.5l-4.633-8.024c-0.321-0.556-0.046-1.275,0.568-1.461 C47.616,38.18,48.787,38,50,38c5.688,0,10.439,3.955,11.676,9.264c0.147,0.63-0.333,1.236-0.98,1.236H51.443L51.443,48.5z M42.482,59.012c-0.245,0-0.492-0.088-0.688-0.272C39.462,56.553,38,53.451,38,50s1.462-6.553,3.793-8.739 c0.196-0.184,0.443-0.272,0.688-0.272c0.344,0,0.684,0.174,0.873,0.502l4.624,8.01c0.179,0.309,0.179,0.691,0,1l-4.624,8.01 C43.166,58.837,42.826,59.012,42.482,59.012L42.482,59.012z M50,62c-1.213,0-2.384-0.18-3.488-0.515 c-0.614-0.186-0.888-0.905-0.568-1.461L50.577,52c0.179-0.309,0.509-0.5,0.866-0.5h9.253c0.646,0,1.127,0.606,0.98,1.236 C60.439,58.045,55.688,62,50,62L50,62z"/><circle cx="50" cy="50" r="1" fill="#472b29"/><g><path fill="#fdfcef" d="M34.5,77.5c0,0,1.567,0,3.5,0s3.5-1.567,3.5-3.5c0-1.781-1.335-3.234-3.055-3.455 C38.473,70.366,38.5,70.187,38.5,70c0-1.933-1.567-3.5-3.5-3.5c-1.032,0-1.95,0.455-2.59,1.165 c-0.384-1.808-1.987-3.165-3.91-3.165c-2.209,0-4,1.791-4,4c0,0.191,0.03,0.374,0.056,0.558C24.128,68.714,23.592,68.5,23,68.5 c-1.228,0-2.245,0.887-2.455,2.055C20.366,70.527,20.187,70.5,20,70.5c-1.933,0-3.5,1.567-3.5,3.5s1.567,3.5,3.5,3.5s7.5,0,7.5,0 V78h7V77.5z"/><path fill="#472b29" d="M36.25,73C36.112,73,36,72.888,36,72.75c0-1.223,0.995-2.218,2.218-2.218 c0.034,0.009,0.737-0.001,1.244,0.136c0.133,0.036,0.212,0.173,0.176,0.306c-0.036,0.134-0.173,0.213-0.306,0.176 c-0.444-0.12-1.1-0.12-1.113-0.118c-0.948,0-1.719,0.771-1.719,1.718C36.5,72.888,36.388,73,36.25,73z M29.5,77 c-0.276,0-0.5,0.224-0.5,0.5s0.224,0.5,0.5,0.5s0.5-0.224,0.5-0.5S29.776,77,29.5,77z"/><path fill="#472b29" d="M38,78h-3.5c-0.276,0-0.5-0.224-0.5-0.5s0.224-0.5,0.5-0.5H38c1.654,0,3-1.346,3-3 c0-1.496-1.125-2.768-2.618-2.959c-0.134-0.018-0.255-0.088-0.336-0.196s-0.115-0.244-0.094-0.377C37.975,70.314,38,70.16,38,70 c0-1.654-1.346-3-3-3c-0.85,0-1.638,0.355-2.219,1c-0.125,0.139-0.321,0.198-0.5,0.148c-0.182-0.049-0.321-0.195-0.36-0.379 C31.58,66.165,30.141,65,28.5,65c-1.93,0-3.5,1.57-3.5,3.5c0,0.143,0.021,0.28,0.041,0.418c0.029,0.203-0.063,0.438-0.242,0.54 s-0.396,0.118-0.556-0.01C23.878,69.155,23.449,69,23,69c-0.966,0-1.792,0.691-1.963,1.644c-0.048,0.267-0.296,0.446-0.569,0.405 C20.314,71.025,20.16,71,20,71c-1.654,0-3,1.346-3,3s1.346,3,3,3h7.5c0.276,0,0.5,0.224,0.5,0.5S27.776,78,27.5,78H20 c-2.206,0-4-1.794-4-4s1.794-4,4-4c0.059,0,0.116,0.002,0.174,0.006C20.588,68.82,21.711,68,23,68c0.349,0,0.689,0.061,1.011,0.18 C24.176,65.847,26.126,64,28.5,64c1.831,0,3.466,1.127,4.153,2.774C33.333,66.276,34.155,66,35,66c2.206,0,4,1.794,4,4 c0,0.048-0.001,0.095-0.004,0.142C40.739,70.59,42,72.169,42,74C42,76.206,40.206,78,38,78z"/><path fill="#472b29" d="M32.5,77c-0.159,0-0.841,0-1,0c-0.276,0-0.5,0.224-0.5,0.5s0.224,0.5,0.5,0.5c0.159,0,0.841,0,1,0 c0.276,0,0.5-0.224,0.5-0.5S32.776,77,32.5,77z"/></g></svg>