<svg fill="#000000" xmlns="http://www.w3.org/2000/svg"  viewBox="0 0 50 50" width="100px" height="100px"><path d="M 14 4 C 8.4886661 4 4 8.4886661 4 14 L 4 36 C 4 41.511334 8.4886661 46 14 46 L 36 46 C 41.511334 46 46 41.511334 46 36 L 46 14 C 46 8.4886661 41.511334 4 36 4 L 14 4 z M 17.5 13 C 20.47 13 23.040234 14.730234 24.240234 17.240234 C 20.890234 18.030234 18.290391 20.740859 17.650391 24.130859 C 15.930391 24.470859 14.429922 25.439062 13.419922 26.789062 C 11.359922 25.449062 10 23.13 10 20.5 C 10 16.36 13.36 13 17.5 13 z M 26.25 19 C 29.034 19 31.422078 20.685797 32.455078 23.091797 C 32.796078 23.035797 33.143 23 33.5 23 C 37.09 23 40 25.91 40 29.5 C 40 33.09 37.09 36 33.5 36 C 33.331 36 33.166 35.986609 33 35.974609 L 33 36 L 19 36 C 16.239 36 14 33.761 14 31 C 14 28.239 16.239 26 19 26 C 19.177 26 19.344625 26.034734 19.515625 26.052734 C 19.511625 25.951734 19.5 25.852 19.5 25.75 C 19.5 22.022 22.522 19 26.25 19 z"/></svg>